<?xml version="1.0" encoding="UTF-8" standalone="no"?>
<svg
   version="1.1"
   viewBox="0 0 220 50"
   id="svg149"
   width="220"
   height="50"
   xmlns="http://www.w3.org/2000/svg"
   xmlns:svg="http://www.w3.org/2000/svg">
  <!-- Generator: Adobe Illustrator 29.1.0, SVG Export Plug-In . SVG Version: 2.1.0 Build 142)  -->
  <defs
     id="defs106">
    <style
       id="style104">
      .st0 {
        fill: #fff;
      }

      .st1 {
        display: none;
      }

      .st2 {
        fill: #36a9e1;
      }

      .st3 {
        fill: #25476a;
      }
    </style>
  </defs>
  <g
     id="Lag_1"
     class="st1">
    <rect
       class="st3"
       y="12.5"
       width="120"
       height="40"
       id="rect111"
       x="0" />
    <path
       class="st0"
       d="M 112.54,50.02 H 5.91 c -3.25,0 -5.89,-2.64 -5.89,-5.9 V 21.6 c 0,-3.66 2.96,-6.62 6.62,-6.62 h 105.9 c 4.65,0 7.45,3.03 7.45,5.78 v 24.26 c 0,2.75 -2.8,5.01 -7.45,5.01 z"
       id="path113" />
  </g>
  <g
     id="NIBIS_ramme"
     transform="translate(0,-8.7907687)">
    <path
       class="st0"
       d="M 200.09,57.934168 H 0 V 9.0658322 h 200.09 c 8.23,0 19.91,2.6695238 19.91,12.4431908 v 23.981954 c 0,9.773667 -11.67,12.443191 -19.91,12.443191 z"
       id="path116"
       style="stroke-width:0.854036" />
    <g
       id="g146">
      <rect
         class="st3"
         x="12.85"
         y="15.5"
         width="195.13"
         height="36"
         rx="7.5300002"
         ry="7.5300002"
         id="rect118" />
      <g
         id="g144">
        <path
           class="st2"
           d="m 40.82,37.77 c -0.59,0.64 -1.42,1.12 -2.47,1.45 -1.05,0.33 -2.25,0.49 -3.58,0.49 -1.33,0 -2.59,-0.26 -3.65,-0.77 -1.06,-0.51 -1.88,-1.25 -2.45,-2.2 -0.57,-0.95 -0.87,-2.07 -0.9,-3.34 v -1.06 c 0,-2.04 0.59,-3.63 1.78,-4.78 1.19,-1.15 2.84,-1.72 4.97,-1.72 1.83,0 3.28,0.37 4.35,1.12 1.07,0.74 1.72,1.81 1.94,3.21 h -2.8 c -0.32,-1.62 -1.46,-2.44 -3.44,-2.44 -1.28,0 -2.25,0.38 -2.91,1.13 -0.66,0.75 -1.01,1.87 -1.03,3.33 v 1.04 c 0,1.46 0.37,2.59 1.12,3.39 0.75,0.81 1.79,1.21 3.12,1.21 1.46,0 2.49,-0.27 3.11,-0.82 V 34.37 H 34.6 v -1.78 h 6.22 v 5.17 z"
           id="path120" />
        <path
           class="st2"
           d="M 49.98,34.33 H 46.8 v 5.19 H 43.95 V 26.03 h 5.77 c 1.89,0 3.35,0.35 4.38,1.05 1.03,0.7 1.54,1.71 1.54,3.03 0,0.9 -0.26,1.66 -0.79,2.27 -0.53,0.61 -1.27,1.08 -2.21,1.4 l 3.69,5.62 v 0.12 H 53.28 L 49.99,34.33 Z M 46.8,32.44 h 2.93 c 0.96,0 1.71,-0.2 2.25,-0.6 0.54,-0.4 0.81,-0.94 0.81,-1.64 0,-0.7 -0.25,-1.28 -0.75,-1.68 -0.5,-0.4 -1.25,-0.6 -2.24,-0.61 h -3.01 v 4.52 z"
           id="path122" />
        <path
           class="st2"
           d="m 70.88,35.13 c -0.17,1.44 -0.81,2.56 -1.94,3.37 -1.13,0.81 -2.63,1.21 -4.5,1.21 -1.31,0 -2.46,-0.25 -3.45,-0.76 -1,-0.51 -1.76,-1.23 -2.31,-2.17 -0.54,-0.94 -0.82,-2.03 -0.85,-3.27 v -1.26 c 0,-1.27 0.27,-2.39 0.82,-3.36 0.55,-0.97 1.34,-1.72 2.36,-2.24 1.03,-0.52 2.21,-0.79 3.56,-0.79 1.81,0 3.27,0.4 4.37,1.21 1.1,0.81 1.75,1.95 1.93,3.42 H 68.03 C 67.9,29.52 67.55,28.82 67,28.39 c -0.55,-0.43 -1.36,-0.64 -2.43,-0.64 -1.24,0 -2.19,0.37 -2.86,1.12 -0.67,0.75 -1.01,1.84 -1.02,3.28 v 1.2 c 0,1.46 0.32,2.57 0.95,3.34 0.63,0.77 1.56,1.15 2.79,1.15 1.12,0 1.96,-0.21 2.53,-0.62 0.57,-0.41 0.92,-1.1 1.07,-2.07 h 2.84 z"
           id="path124" />
        <path
           class="st0"
           d="m 72.77,34.36 c 0,-0.96 0.23,-1.83 0.68,-2.6 0.45,-0.77 1.1,-1.37 1.93,-1.8 0.83,-0.43 1.77,-0.64 2.82,-0.64 1.62,0 2.94,0.47 3.95,1.4 1.01,0.94 1.51,2.18 1.51,3.72 v 0.23 c 0,0.97 -0.23,1.84 -0.68,2.62 -0.45,0.78 -1.09,1.37 -1.92,1.79 -0.83,0.42 -1.77,0.63 -2.83,0.63 -1.62,0 -2.93,-0.47 -3.94,-1.4 -1.01,-0.93 -1.52,-2.18 -1.52,-3.72 v -0.22 z m 1.36,0.3 c 0,1.2 0.38,2.18 1.13,2.95 0.75,0.77 1.75,1.15 2.97,1.15 1.22,0 2.2,-0.38 2.96,-1.15 0.76,-0.77 1.13,-1.78 1.13,-3.04 v -0.21 c 0,-0.77 -0.17,-1.47 -0.52,-2.1 -0.35,-0.64 -0.83,-1.13 -1.45,-1.48 -0.62,-0.35 -1.34,-0.52 -2.14,-0.52 -1.2,0 -2.18,0.39 -2.94,1.16 -0.76,0.78 -1.14,1.79 -1.14,3.04 z"
           id="path126" />
        <path
           class="st0"
           d="m 87.67,29.49 0.04,1.63 c 0.45,-0.61 1.01,-1.06 1.69,-1.36 0.68,-0.3 1.43,-0.45 2.25,-0.45 1.92,0 3.14,0.65 3.66,1.95 0.44,-0.62 1.02,-1.1 1.75,-1.44 0.73,-0.34 1.53,-0.5 2.41,-0.5 2.62,0 3.95,1.17 4,3.52 v 6.69 h -1.35 v -6.61 c 0,-0.9 -0.24,-1.56 -0.7,-1.99 -0.46,-0.43 -1.22,-0.65 -2.26,-0.65 -0.97,0.01 -1.79,0.27 -2.46,0.77 -0.67,0.5 -1.04,1.12 -1.12,1.84 v 6.63 h -1.35 v -6.69 c 0,-0.86 -0.25,-1.5 -0.74,-1.92 -0.49,-0.42 -1.23,-0.63 -2.24,-0.63 -0.85,0 -1.58,0.2 -2.19,0.6 -0.61,0.4 -1.06,0.99 -1.35,1.77 v 6.87 H 86.36 V 29.5 h 1.3 z"
           id="path128" />
        <path
           class="st0"
           d="m 116.71,34.61 c 0,1.56 -0.42,2.8 -1.26,3.72 -0.84,0.92 -1.97,1.38 -3.38,1.38 -1.67,0 -2.95,-0.48 -3.83,-1.44 v 5.11 H 106.9 V 29.5 h 1.25 l 0.07,1.42 c 0.88,-1.07 2.15,-1.6 3.82,-1.6 1.46,0 2.6,0.45 3.43,1.36 0.83,0.91 1.25,2.17 1.25,3.78 v 0.16 z m -1.35,-0.2 c 0,-1.28 -0.32,-2.29 -0.96,-3.03 -0.64,-0.74 -1.53,-1.11 -2.67,-1.11 -0.83,0 -1.54,0.16 -2.13,0.49 -0.59,0.33 -1.05,0.8 -1.36,1.43 V 37 c 0.32,0.57 0.79,1.01 1.39,1.32 0.6,0.3 1.31,0.45 2.13,0.45 1.13,0 2.02,-0.37 2.65,-1.12 0.63,-0.75 0.95,-1.82 0.95,-3.24 z"
           id="path130" />
        <path
           class="st0"
           d="m 121.21,39.52 h -1.35 V 25.29 h 1.35 z"
           id="path132" />
        <path
           class="st0"
           d="m 124.79,26.6 c 0,-0.21 0.08,-0.39 0.25,-0.53 0.17,-0.14 0.39,-0.22 0.68,-0.22 0.29,0 0.51,0.07 0.68,0.22 0.17,0.14 0.25,0.32 0.25,0.53 0,0.21 -0.08,0.38 -0.25,0.52 -0.17,0.14 -0.4,0.21 -0.68,0.21 -0.28,0 -0.51,-0.07 -0.68,-0.21 -0.17,-0.14 -0.25,-0.32 -0.25,-0.52 z m 1.59,12.92 h -1.35 V 29.5 h 1.35 z"
           id="path134" />
        <path
           class="st0"
           d="m 137.74,39.52 c -0.14,-0.31 -0.22,-0.78 -0.26,-1.4 -0.47,0.51 -1.08,0.9 -1.81,1.17 -0.73,0.27 -1.51,0.41 -2.33,0.41 -1.17,0 -2.12,-0.27 -2.85,-0.81 -0.73,-0.54 -1.09,-1.22 -1.09,-2.04 0,-0.98 0.49,-1.75 1.48,-2.32 0.99,-0.57 2.37,-0.85 4.13,-0.85 h 2.45 v -1.14 c 0,-0.72 -0.27,-1.28 -0.81,-1.69 -0.54,-0.41 -1.32,-0.62 -2.35,-0.62 -0.94,0 -1.72,0.2 -2.33,0.59 -0.62,0.4 -0.92,0.87 -0.92,1.43 h -1.35 c 0,-0.81 0.45,-1.5 1.35,-2.08 0.9,-0.58 2.01,-0.88 3.33,-0.88 1.32,0 2.43,0.28 3.22,0.84 0.79,0.56 1.19,1.34 1.21,2.34 v 4.74 c 0,0.97 0.12,1.7 0.37,2.18 v 0.11 h -1.44 z m -4.24,-0.8 c 0.9,0 1.71,-0.18 2.42,-0.54 0.71,-0.36 1.23,-0.84 1.55,-1.44 v -2.2 h -2.41 c -1.35,0.01 -2.4,0.21 -3.16,0.61 -0.76,0.39 -1.14,0.93 -1.14,1.62 0,0.56 0.25,1.03 0.76,1.4 0.51,0.37 1.17,0.56 1.98,0.56 z"
           id="path136" />
        <path
           class="st0"
           d="m 143.69,29.49 0.05,1.71 c 0.46,-0.62 1.03,-1.09 1.71,-1.41 0.68,-0.32 1.44,-0.49 2.27,-0.49 1.31,0 2.28,0.3 2.92,0.91 0.64,0.61 0.96,1.51 0.97,2.72 v 6.58 h -1.34 v -6.59 c 0,-0.9 -0.24,-1.56 -0.69,-2 -0.46,-0.44 -1.18,-0.66 -2.18,-0.66 -0.83,0 -1.57,0.21 -2.21,0.64 -0.64,0.43 -1.12,1.01 -1.43,1.74 v 6.86 h -1.34 V 29.48 h 1.28 z"
           id="path138" />
        <path
           class="st0"
           d="m 159.6,38.77 c 0.94,0 1.73,-0.22 2.36,-0.65 0.63,-0.44 0.98,-1 1.03,-1.69 h 1.3 c -0.04,0.61 -0.27,1.17 -0.7,1.67 -0.43,0.5 -1,0.9 -1.71,1.18 -0.71,0.28 -1.47,0.43 -2.28,0.43 -1.6,0 -2.87,-0.46 -3.8,-1.37 -0.94,-0.91 -1.4,-2.14 -1.4,-3.69 v -0.33 c 0,-0.99 0.21,-1.86 0.63,-2.62 0.42,-0.76 1.02,-1.35 1.81,-1.76 0.79,-0.41 1.7,-0.62 2.76,-0.62 1.34,0 2.44,0.33 3.31,0.98 0.87,0.65 1.33,1.52 1.39,2.58 H 163 c -0.06,-0.78 -0.4,-1.42 -1.03,-1.9 -0.63,-0.48 -1.42,-0.72 -2.37,-0.72 -1.22,0 -2.16,0.36 -2.83,1.08 -0.67,0.72 -1.01,1.74 -1.01,3.04 v 0.32 c 0,1.28 0.34,2.28 1.01,2.99 0.67,0.72 1.62,1.07 2.85,1.07 z"
           id="path140" />
        <path
           class="st0"
           d="m 171.71,39.7 c -1.04,0 -1.97,-0.21 -2.81,-0.63 -0.84,-0.42 -1.49,-1 -1.96,-1.76 -0.47,-0.76 -0.7,-1.59 -0.7,-2.52 v -0.4 c 0,-0.96 0.23,-1.83 0.68,-2.6 0.45,-0.77 1.09,-1.38 1.9,-1.82 0.81,-0.44 1.69,-0.66 2.64,-0.66 1.48,0 2.65,0.42 3.52,1.25 0.87,0.83 1.3,1.97 1.3,3.4 v 0.62 h -8.7 v 0.21 c 0,1.14 0.4,2.08 1.19,2.84 0.79,0.76 1.79,1.13 2.99,1.13 0.72,0 1.36,-0.11 1.91,-0.32 0.55,-0.22 1.05,-0.56 1.5,-1.04 l 0.84,0.53 c -0.99,1.18 -2.43,1.77 -4.32,1.77 z m -0.25,-9.45 c -1.01,0 -1.87,0.31 -2.56,0.92 -0.7,0.61 -1.12,1.43 -1.27,2.46 h 7.32 v -0.12 c -0.04,-0.96 -0.37,-1.75 -1,-2.35 -0.63,-0.61 -1.46,-0.91 -2.48,-0.91 z"
           id="path142" />
      </g>
    </g>
  </g>
</svg>
