<svg version="1.1" id="Layer_1" xmlns="http://www.w3.org/2000/svg" xmlns:xlink="http://www.w3.org/1999/xlink" x="0px" y="0px"
	 width="100%" viewBox="0 0 385 138" enable-background="new 0 0 385 138" xml:space="preserve">
<path fill="#FDFEFD" opacity="1.000000" stroke="none" 
	d="
M250.000000,139.000000 
	C166.666687,139.000000 83.833374,139.000000 1.000044,139.000000 
	C1.000030,93.000031 1.000030,47.000061 1.000015,1.000069 
	C129.333267,1.000046 257.666534,1.000046 385.999878,1.000023 
	C385.999908,46.999928 385.999908,92.999855 385.999939,138.999893 
	C340.833344,139.000000 295.666656,139.000000 250.000000,139.000000 
M23.154409,110.351929 
	C40.802811,125.809975 66.942146,129.211472 87.999794,118.651009 
	C106.924210,109.160355 120.065498,89.377838 117.011620,64.817200 
	C114.611015,45.510410 104.011009,31.985977 86.354851,23.333946 
	C83.948166,28.390507 81.690216,33.134544 79.449066,37.843292 
	C105.330940,53.870766 102.782997,82.789825 88.749557,97.402122 
	C74.152046,112.601761 48.420425,112.231102 33.891727,96.394363 
	C26.394104,88.221718 22.995192,78.520470 24.093212,67.574249 
	C25.409504,54.452099 32.417068,44.786232 43.921181,38.266319 
	C42.713070,35.574421 41.679176,33.141727 40.536854,30.761059 
	C39.354187,28.296314 38.066330,25.882042 36.844986,23.485914 
	C1.896164,39.240417 -4.440029,84.933929 23.154409,110.351929 
M132.899353,28.406258 
	C125.240723,36.399117 123.806129,45.763218 126.831528,56.090900 
	C129.601959,65.548225 137.069412,70.092514 145.490219,73.288879 
	C154.933548,76.873375 164.698334,79.635086 174.050262,83.427887 
	C180.276260,85.952927 182.877121,91.335495 182.023651,96.970863 
	C181.303894,101.723412 176.918472,105.647766 170.878296,106.973854 
	C162.464340,108.821098 154.171844,107.942390 146.459793,104.491638 
	C139.578552,101.412628 133.168732,97.280060 126.290436,93.468086 
	C124.120644,97.802429 121.699181,102.639503 119.312111,107.407867 
	C133.502701,123.431282 165.497025,129.407486 185.034988,119.772339 
	C195.617905,114.553368 201.770752,106.187965 201.906433,94.220779 
	C202.040100,82.429825 196.520325,73.766586 185.640182,69.113281 
	C178.492294,66.056213 170.949951,63.933636 163.720886,61.049984 
	C158.827530,59.098038 153.619873,57.266396 149.530151,54.113281 
	C142.146225,48.420414 144.212463,38.669743 153.095642,35.973709 
	C156.510925,34.937172 160.278748,34.573826 163.863724,34.676830 
	C174.374634,34.978832 183.859314,38.923126 193.254410,44.167927 
	C195.751556,38.838226 198.104553,33.816170 200.556152,28.583696 
	C186.248123,19.683655 171.110611,16.345289 154.896637,18.423899 
	C146.915924,19.447016 139.380096,22.035667 132.899353,28.406258 
M247.839066,31.092340 
	C252.079010,23.158665 250.536041,16.241350 243.691513,12.193768 
	C236.276657,7.808915 224.942169,10.338880 220.363556,19.636358 
	C221.556854,20.489431 222.715973,21.435434 223.987320,22.193073 
	C225.196243,22.913490 226.522461,23.437048 227.882156,24.087879 
	C228.416428,23.435635 228.721329,23.038885 229.051407,22.664335 
	C231.695541,19.664078 234.528168,16.866463 238.772018,19.811365 
	C241.821045,21.927132 241.327316,25.794401 237.396118,30.165854 
	C233.286499,34.735691 229.192444,39.370659 224.637054,43.472336 
	C220.988586,46.757378 219.776184,50.252930 221.066528,54.687523 
	C231.292816,54.687523 241.359772,54.687523 251.346039,54.687523 
	C251.346039,51.638515 251.346039,48.926895 251.346039,45.843330 
	C245.765900,45.843330 240.555191,45.843330 235.083176,45.843330 
	C239.385101,40.883636 243.375153,36.283504 247.839066,31.092340 
M230.954788,111.671753 
	C230.954788,109.639885 230.954788,107.608017 230.954788,104.114029 
	C235.100113,109.497971 238.192566,113.586029 241.366699,117.609650 
	C243.206406,119.941711 245.389038,122.158165 240.988861,124.629425 
	C247.431778,124.629425 253.099487,124.629425 259.710968,124.629425 
	C248.600479,119.743896 244.873001,109.370934 236.973099,101.359192 
	C243.812195,96.260422 250.075836,91.590675 255.820099,87.308151 
	C251.645752,87.308151 246.631592,87.308151 242.184677,87.308151 
	C242.537796,89.124329 243.663406,91.460831 243.016571,92.161827 
	C239.505981,95.966339 235.557709,99.366951 230.668777,103.923935 
	C230.668777,90.569122 230.668777,78.882339 230.668777,66.293800 
	C225.993607,68.252945 222.104660,69.882629 218.215714,71.512306 
	C218.062759,72.008537 217.909790,72.504768 217.756836,73.000992 
	C224.233368,71.096863 224.039169,74.965965 224.041046,78.649170 
	C224.046524,89.302238 224.186752,99.958000 223.984558,110.607216 
	C223.884811,115.860748 226.518204,122.420700 218.533768,124.630844 
	C224.525391,124.630844 230.517029,124.630844 236.508652,124.630844 
	C230.749191,123.547310 230.773438,119.366135 230.951126,115.081429 
	C230.985580,114.250610 230.955231,113.417091 230.954788,111.671753 
M69.840942,45.454826 
	C69.840942,34.010921 69.840942,22.567019 69.840942,11.053106 
	C64.129066,11.053106 58.873127,11.053106 53.673691,11.053106 
	C53.673691,25.801683 53.673691,40.247780 53.673691,54.716507 
	C59.148785,54.716507 64.364876,54.716507 69.840942,54.716507 
	C69.840942,51.728806 69.840942,49.084194 69.840942,45.454826 
M315.764343,122.892357 
	C321.852356,127.073761 328.321533,127.349953 334.497284,123.641380 
	C341.742737,119.290451 344.185028,112.111786 343.962799,104.015984 
	C343.713623,94.940735 337.090546,87.214478 328.913116,86.058540 
	C320.177734,84.823730 312.448486,89.762726 309.403320,98.789070 
	C306.354218,107.827042 308.251251,115.778381 315.764343,122.892357 
M356.973816,87.071068 
	C348.350647,93.220001 348.691559,101.413986 357.800598,106.812500 
	C361.078644,108.755272 364.833313,110.203812 367.477997,112.790428 
	C369.096436,114.373398 370.084991,118.068253 369.363037,120.109665 
	C368.790344,121.729065 365.206635,123.080879 362.929016,123.130234 
	C358.505035,123.226105 355.766724,120.143585 354.007904,116.268600 
	C353.387604,114.901947 352.848602,113.498405 352.272461,112.111717 
	C351.958160,112.220802 351.643829,112.329895 351.329529,112.438980 
	C351.329529,116.480911 351.329529,120.522835 351.329529,123.968788 
	C354.349487,124.549568 357.177338,125.001541 359.960358,125.646896 
	C366.674866,127.203918 373.750671,124.040672 375.787567,118.482674 
	C377.921051,112.661087 375.479248,107.668755 368.609833,103.952362 
	C365.837646,102.452576 362.942200,101.172630 360.218994,99.592468 
	C357.313965,97.906822 354.877167,95.475754 356.356384,91.901215 
	C357.929413,88.099968 361.716309,87.851715 364.891266,89.140274 
	C367.101685,90.037354 368.885345,92.304924 370.488861,94.263786 
	C371.520935,95.524582 371.880859,97.335564 372.542053,98.899963 
	C372.851471,98.814949 373.160919,98.729942 373.470337,98.644936 
	C373.470337,94.547356 373.470337,90.449776 373.470337,87.013695 
	C370.738922,86.776299 368.388550,86.422501 366.035889,86.406441 
	C363.269653,86.387550 360.501404,86.661713 356.973816,87.071068 
M288.411133,90.294250 
	C288.589447,92.081863 288.903687,93.868057 288.922424,95.657333 
	C289.000641,103.131752 288.840820,110.611572 289.064331,118.080544 
	C289.214752,123.107269 292.059784,125.996468 296.194489,126.011032 
	C300.444458,126.026001 303.900299,122.810104 304.531799,118.252632 
	C299.622986,122.065521 296.352844,121.849037 296.149719,117.466293 
	C295.730499,108.421028 296.023468,99.342751 296.023468,90.572937 
	C299.197021,89.966858 301.804016,89.468971 304.411041,88.971085 
	C304.284760,88.372467 304.158508,87.773849 304.032257,87.175232 
	C301.455902,87.048164 298.879547,86.921089 295.763489,86.767395 
	C295.763489,82.791306 295.763489,79.097450 295.763489,75.041626 
	C291.491272,80.207779 287.638855,84.866280 283.629395,89.714706 
	C284.795898,89.811188 286.191498,89.926613 288.411133,90.294250 
M274.290009,112.250549 
	C274.290009,103.561142 274.290009,94.871727 274.290009,85.266312 
	C269.416473,87.335335 265.642883,88.937370 260.826752,90.982018 
	C267.052734,92.184677 267.260071,92.173996 267.530762,97.426903 
	C267.821167,103.063469 267.683441,108.722794 267.705017,114.372284 
	C267.721222,118.625336 268.148834,123.118683 262.440155,124.622101 
	C268.156219,124.622101 273.872314,124.622101 279.588379,124.622101 
	C272.567291,123.066452 274.975708,117.383179 274.290009,112.250549 
M268.463745,74.071602 
	C270.456512,73.747200 272.627899,73.768257 274.332672,72.886818 
	C274.840759,72.624123 274.603119,69.257439 273.684174,68.357552 
	C272.740631,67.433571 269.406525,67.160645 269.110718,67.698448 
	C268.194244,69.364799 268.225189,71.552216 268.463745,74.071602 
z"/>
<path fill="#1F1F1D" opacity="1.000000" stroke="none" 
	d="
M22.861258,110.148407 
	C-4.440029,84.933929 1.896164,39.240417 36.844986,23.485914 
	C38.066330,25.882042 39.354187,28.296314 40.536854,30.761059 
	C41.679176,33.141727 42.713070,35.574421 43.921181,38.266319 
	C32.417068,44.786232 25.409504,54.452099 24.093212,67.574249 
	C22.995192,78.520470 26.394104,88.221718 33.891727,96.394363 
	C48.420425,112.231102 74.152046,112.601761 88.749557,97.402122 
	C102.782997,82.789825 105.330940,53.870766 79.449066,37.843292 
	C81.690216,33.134544 83.948166,28.390507 86.354851,23.333946 
	C104.011009,31.985977 114.611015,45.510410 117.011620,64.817200 
	C120.065498,89.377838 106.924210,109.160355 87.999794,118.651009 
	C66.942146,129.211472 40.802811,125.809975 22.861258,110.148407 
z"/>
<path fill="#1F1F1D" opacity="1.000000" stroke="none" 
	d="
M133.172852,28.175556 
	C139.380096,22.035667 146.915924,19.447016 154.896637,18.423899 
	C171.110611,16.345289 186.248123,19.683655 200.556152,28.583696 
	C198.104553,33.816170 195.751556,38.838226 193.254410,44.167927 
	C183.859314,38.923126 174.374634,34.978832 163.863724,34.676830 
	C160.278748,34.573826 156.510925,34.937172 153.095642,35.973709 
	C144.212463,38.669743 142.146225,48.420414 149.530151,54.113281 
	C153.619873,57.266396 158.827530,59.098038 163.720886,61.049984 
	C170.949951,63.933636 178.492294,66.056213 185.640182,69.113281 
	C196.520325,73.766586 202.040100,82.429825 201.906433,94.220779 
	C201.770752,106.187965 195.617905,114.553368 185.034988,119.772339 
	C165.497025,129.407486 133.502701,123.431282 119.312111,107.407867 
	C121.699181,102.639503 124.120644,97.802429 126.290436,93.468086 
	C133.168732,97.280060 139.578552,101.412628 146.459793,104.491638 
	C154.171844,107.942390 162.464340,108.821098 170.878296,106.973854 
	C176.918472,105.647766 181.303894,101.723412 182.023651,96.970863 
	C182.877121,91.335495 180.276260,85.952927 174.050262,83.427887 
	C164.698334,79.635086 154.933548,76.873375 145.490219,73.288879 
	C137.069412,70.092514 129.601959,65.548225 126.831528,56.090900 
	C123.806129,45.763218 125.240723,36.399117 133.172852,28.175556 
z"/>
<path fill="#242422" opacity="1.000000" stroke="none" 
	d="
M247.602142,31.387856 
	C243.375153,36.283504 239.385101,40.883636 235.083176,45.843330 
	C240.555191,45.843330 245.765900,45.843330 251.346039,45.843330 
	C251.346039,48.926895 251.346039,51.638515 251.346039,54.687523 
	C241.359772,54.687523 231.292816,54.687523 221.066528,54.687523 
	C219.776184,50.252930 220.988586,46.757378 224.637054,43.472336 
	C229.192444,39.370659 233.286499,34.735691 237.396118,30.165854 
	C241.327316,25.794401 241.821045,21.927132 238.772018,19.811365 
	C234.528168,16.866463 231.695541,19.664078 229.051407,22.664335 
	C228.721329,23.038885 228.416428,23.435635 227.882156,24.087879 
	C226.522461,23.437048 225.196243,22.913490 223.987320,22.193073 
	C222.715973,21.435434 221.556854,20.489431 220.363556,19.636358 
	C224.942169,10.338880 236.276657,7.808915 243.691513,12.193768 
	C250.536041,16.241350 252.079010,23.158665 247.602142,31.387856 
z"/>
<path fill="#5EB65F" opacity="1.000000" stroke="none" 
	d="
M230.954773,112.128288 
	C230.955231,113.417091 230.985580,114.250610 230.951126,115.081429 
	C230.773438,119.366135 230.749191,123.547310 236.508652,124.630844 
	C230.517029,124.630844 224.525391,124.630844 218.533768,124.630844 
	C226.518204,122.420700 223.884811,115.860748 223.984558,110.607216 
	C224.186752,99.958000 224.046524,89.302238 224.041046,78.649170 
	C224.039169,74.965965 224.233368,71.096863 217.756836,73.000992 
	C217.909790,72.504768 218.062759,72.008537 218.215714,71.512306 
	C222.104660,69.882629 225.993607,68.252945 230.668777,66.293800 
	C230.668777,78.882339 230.668777,90.569122 230.668777,103.923935 
	C235.557709,99.366951 239.505981,95.966339 243.016571,92.161827 
	C243.663406,91.460831 242.537796,89.124329 242.184677,87.308151 
	C246.631592,87.308151 251.645752,87.308151 255.820099,87.308151 
	C250.075836,91.590675 243.812195,96.260422 236.973099,101.359192 
	C244.873001,109.370934 248.600479,119.743896 259.710968,124.629425 
	C253.099487,124.629425 247.431778,124.629425 240.988861,124.629425 
	C245.389038,122.158165 243.206406,119.941711 241.366699,117.609650 
	C238.192566,113.586029 235.100113,109.497971 230.954788,104.114029 
	C230.954788,107.608017 230.954788,109.639885 230.954773,112.128288 
z"/>
<path fill="#272725" opacity="1.000000" stroke="none" 
	d="
M69.840942,45.947205 
	C69.840942,49.084194 69.840942,51.728806 69.840942,54.716507 
	C64.364876,54.716507 59.148785,54.716507 53.673691,54.716507 
	C53.673691,40.247780 53.673691,25.801683 53.673691,11.053106 
	C58.873127,11.053106 64.129066,11.053106 69.840942,11.053106 
	C69.840942,22.567019 69.840942,34.010921 69.840942,45.947205 
z"/>
<path fill="#5FB660" opacity="1.000000" stroke="none" 
	d="
M315.471558,122.666565 
	C308.251251,115.778381 306.354218,107.827042 309.403320,98.789070 
	C312.448486,89.762726 320.177734,84.823730 328.913116,86.058540 
	C337.090546,87.214478 343.713623,94.940735 343.962799,104.015984 
	C344.185028,112.111786 341.742737,119.290451 334.497284,123.641380 
	C328.321533,127.349953 321.852356,127.073761 315.471558,122.666565 
M318.914948,91.421791 
	C314.315887,99.182892 314.728638,112.557259 320.452759,119.129471 
	C322.242981,121.184898 325.931000,122.996025 328.419922,122.635849 
	C330.881439,122.279640 334.177734,119.423355 334.921906,116.994102 
	C337.308655,109.202919 337.030640,101.204155 332.873749,93.869576 
	C329.728363,88.319687 325.056366,87.407936 318.914948,91.421791 
z"/>
<path fill="#61B762" opacity="1.000000" stroke="none" 
	d="
M357.353943,86.939926 
	C360.501404,86.661713 363.269653,86.387550 366.035889,86.406441 
	C368.388550,86.422501 370.738922,86.776299 373.470337,87.013695 
	C373.470337,90.449776 373.470337,94.547356 373.470337,98.644936 
	C373.160919,98.729942 372.851471,98.814949 372.542053,98.899963 
	C371.880859,97.335564 371.520935,95.524582 370.488861,94.263786 
	C368.885345,92.304924 367.101685,90.037354 364.891266,89.140274 
	C361.716309,87.851715 357.929413,88.099968 356.356384,91.901215 
	C354.877167,95.475754 357.313965,97.906822 360.218994,99.592468 
	C362.942200,101.172630 365.837646,102.452576 368.609833,103.952362 
	C375.479248,107.668755 377.921051,112.661087 375.787567,118.482674 
	C373.750671,124.040672 366.674866,127.203918 359.960358,125.646896 
	C357.177338,125.001541 354.349487,124.549568 351.329529,123.968788 
	C351.329529,120.522835 351.329529,116.480911 351.329529,112.438980 
	C351.643829,112.329895 351.958160,112.220802 352.272461,112.111717 
	C352.848602,113.498405 353.387604,114.901947 354.007904,116.268600 
	C355.766724,120.143585 358.505035,123.226105 362.929016,123.130234 
	C365.206635,123.080879 368.790344,121.729065 369.363037,120.109665 
	C370.084991,118.068253 369.096436,114.373398 367.477997,112.790428 
	C364.833313,110.203812 361.078644,108.755272 357.800598,106.812500 
	C348.691559,101.413986 348.350647,93.220001 357.353943,86.939926 
z"/>
<path fill="#5FB660" opacity="1.000000" stroke="none" 
	d="
M287.999084,90.168144 
	C286.191498,89.926613 284.795898,89.811188 283.629395,89.714706 
	C287.638855,84.866280 291.491272,80.207779 295.763489,75.041626 
	C295.763489,79.097450 295.763489,82.791306 295.763489,86.767395 
	C298.879547,86.921089 301.455902,87.048164 304.032257,87.175232 
	C304.158508,87.773849 304.284760,88.372467 304.411041,88.971085 
	C301.804016,89.468971 299.197021,89.966858 296.023468,90.572937 
	C296.023468,99.342751 295.730499,108.421028 296.149719,117.466293 
	C296.352844,121.849037 299.622986,122.065521 304.531799,118.252632 
	C303.900299,122.810104 300.444458,126.026001 296.194489,126.011032 
	C292.059784,125.996468 289.214752,123.107269 289.064331,118.080544 
	C288.840820,110.611572 289.000641,103.131752 288.922424,95.657333 
	C288.903687,93.868057 288.589447,92.081863 287.999084,90.168144 
z"/>
<path fill="#5BB45C" opacity="1.000000" stroke="none" 
	d="
M274.290222,112.716194 
	C274.975708,117.383179 272.567291,123.066452 279.588379,124.622101 
	C273.872314,124.622101 268.156219,124.622101 262.440155,124.622101 
	C268.148834,123.118683 267.721222,118.625336 267.705017,114.372284 
	C267.683441,108.722794 267.821167,103.063469 267.530762,97.426903 
	C267.260071,92.173996 267.052734,92.184677 260.826752,90.982018 
	C265.642883,88.937370 269.416473,87.335335 274.290009,85.266312 
	C274.290009,94.871727 274.290009,103.561142 274.290222,112.716194 
z"/>
<path fill="#5DB55E" opacity="1.000000" stroke="none" 
	d="
M268.176086,73.804504 
	C268.225189,71.552216 268.194244,69.364799 269.110718,67.698448 
	C269.406525,67.160645 272.740631,67.433571 273.684174,68.357552 
	C274.603119,69.257439 274.840759,72.624123 274.332672,72.886818 
	C272.627899,73.768257 270.456512,73.747200 268.176086,73.804504 
z"/>
<path fill="#FCFEFC" opacity="1.000000" stroke="none" 
	d="
M319.192932,91.140717 
	C325.056366,87.407936 329.728363,88.319687 332.873749,93.869576 
	C337.030640,101.204155 337.308655,109.202919 334.921906,116.994102 
	C334.177734,119.423355 330.881439,122.279640 328.419922,122.635849 
	C325.931000,122.996025 322.242981,121.184898 320.452759,119.129471 
	C314.728638,112.557259 314.315887,99.182892 319.192932,91.140717 
z"/>
</svg>