<?xml version="1.0" encoding="UTF-8"?>
<svg id="Orange" xmlns="http://www.w3.org/2000/svg" viewBox="0 0 798 154.81">
  <defs>
    <style>
      .cls-1 {
        fill: #53ba65;
      }

      .cls-1, .cls-2 {
        stroke-width: 0px;
      }

      .cls-2 {
        fill: #231f20;
      }
    </style>
  </defs>
  <g>
    <path class="cls-1" d="m246.32,107.36c0-14.88,10.8-25.3,25.68-25.3,8.43,0,15.54,3.32,19.52,9.86l-5.02,3.41c-3.41-5.02-8.72-7.39-14.5-7.39-10.9,0-18.86,7.77-18.86,19.43s7.96,19.43,18.86,19.43c5.78,0,11.09-2.27,14.5-7.3l5.02,3.41c-3.98,6.45-11.09,9.86-19.52,9.86-14.88,0-25.68-10.52-25.68-25.4Z"/>
    <path class="cls-1" d="m299.67,107.36c0-14.79,10.8-25.3,25.4-25.3s25.3,10.52,25.3,25.3-10.71,25.4-25.3,25.4-25.4-10.61-25.4-25.4Zm43.88,0c0-11.66-7.87-19.43-18.48-19.43s-18.58,7.77-18.58,19.43,7.96,19.43,18.58,19.43,18.48-7.77,18.48-19.43Z"/>
    <path class="cls-1" d="m446.38,103.38v28.91h-6.73v-28.24c0-10.52-5.31-15.92-14.31-15.92-10.24,0-16.68,6.63-16.68,18.01v26.16h-6.73v-28.24c0-10.52-5.31-15.92-14.41-15.92-10.14,0-16.68,6.63-16.68,18.01v26.16h-6.73v-49.85h6.44v9.1c3.51-5.97,9.95-9.48,18.29-9.48s14.69,3.51,17.72,10.52c3.6-6.44,10.71-10.52,19.71-10.52,12.13,0,20.09,7.01,20.09,21.32Z"/>
    <path class="cls-1" d="m515.18,107.36c0,15.16-10.62,25.4-24.83,25.4-7.96,0-14.78-3.41-18.95-9.86v27.77h-6.73v-68.24h6.44v9.86c4.08-6.63,10.99-10.24,19.24-10.24,14.22,0,24.83,10.24,24.83,25.3Zm-6.73,0c0-11.56-8.06-19.43-18.58-19.43s-18.58,7.87-18.58,19.43,7.96,19.43,18.58,19.43,18.58-7.77,18.58-19.43Z"/>
    <path class="cls-1" d="m528.92,61.97h6.73v70.32h-6.73V61.97Z"/>
    <path class="cls-1" d="m552.89,66.71c0-2.56,2.18-4.74,4.93-4.74s4.93,2.08,4.93,4.64c0,2.75-2.08,4.93-4.93,4.93s-4.93-2.18-4.93-4.83Zm1.52,15.73h6.73v49.85h-6.73v-49.85Z"/>
    <path class="cls-1" d="m617.53,101.39v30.9h-6.44v-7.77c-3.03,5.12-8.91,8.25-17.15,8.25-11.28,0-18.2-5.88-18.2-14.5,0-7.68,4.93-14.12,19.24-14.12h15.83v-3.03c0-8.53-4.83-13.17-14.12-13.17-6.44,0-12.51,2.27-16.58,5.88l-3.03-5.02c5.02-4.26,12.42-6.73,20.28-6.73,12.89,0,20.19,6.44,20.19,19.33Zm-6.73,15.92v-8.15h-15.64c-9.67,0-12.79,3.79-12.79,8.91,0,5.78,4.64,9.38,12.6,9.38s13.17-3.6,15.83-10.14Z"/>
    <path class="cls-1" d="m681.68,103.38v28.91h-6.73v-28.24c0-10.52-5.5-15.92-14.97-15.92-10.71,0-17.44,6.63-17.44,18.01v26.16h-6.73v-49.85h6.44v9.19c3.6-6.07,10.33-9.57,18.95-9.57,12.13,0,20.47,7.01,20.47,21.32Z"/>
    <path class="cls-1" d="m694.95,107.36c0-14.88,10.8-25.3,25.68-25.3,8.43,0,15.54,3.32,19.52,9.86l-5.02,3.41c-3.41-5.02-8.72-7.39-14.5-7.39-10.9,0-18.86,7.77-18.86,19.43s7.96,19.43,18.86,19.43c5.78,0,11.09-2.27,14.5-7.3l5.02,3.41c-3.98,6.45-11.09,9.86-19.52,9.86-14.88,0-25.68-10.52-25.68-25.4Z"/>
    <path class="cls-1" d="m796.73,109.45h-41.7c.76,10.42,8.72,17.34,19.62,17.34,6.07,0,11.47-2.18,15.26-6.54l3.79,4.36c-4.46,5.31-11.37,8.15-19.24,8.15-15.54,0-26.16-10.61-26.16-25.4s10.33-25.3,24.36-25.3,24.17,10.33,24.17,25.3c0,.57-.09,1.33-.09,2.08Zm-41.7-5.02h35.35c-.85-9.76-7.96-16.58-17.72-16.58s-16.77,6.82-17.63,16.58Z"/>
  </g>
  <g>
    <path class="cls-2" d="m214.5,40.9l8.41-17.83c-11.15-7.38-26.41-12.35-42.02-12.35-26.07,0-43.73,12.86-43.73,33.44,0,42.7,64.82,27.78,64.82,54.53,0,9.26-8.4,14.58-22.46,14.58-12.85,0-28.29-6.17-40.64-17.49l-8.75,17.49c12.34,11.31,30.18,19.02,49.04,19.02,26.41,0,45.28-13.2,45.28-34.63.16-43.22-64.65-29.15-64.65-55.39,0-8.06,7.72-12.52,19.55-12.52,9.09,0,22.13,3.26,35.16,11.15"/>
    <path class="cls-2" d="m128.41,71.59c0-24.58-14.31-44.99-35.6-54.59l-7.95,17.06c13.53,7,22.8,20.98,22.8,37.53,0,23.84-19.21,42.7-42.7,42.7s-43.21-18.86-43.21-42.7c0-16.5,9.38-30.45,22.99-37.48l-7.98-17.13C15.47,26.54,1.18,46.89,1.18,71.59c0,34.3,27.78,60.87,63.62,60.87s63.62-26.58,63.62-60.87"/>
    <rect class="cls-2" x="55.49" y="2.75" width="18.49" height="50.5"/>
    <path class="cls-2" d="m260.36,29.8l-14.65,15.01v8.29h35.23v-10.01h-19.72l9-9.36c3.53-3.67,5.95-6.68,7.26-9.04,1.31-2.36,1.97-4.83,1.97-7.4,0-4.72-1.64-8.45-4.9-11.18-3.27-2.74-7.06-4.11-11.36-4.11s-7.86.93-10.64,2.79c-2.79,1.86-5.35,4.6-7.68,8.22l8.93,5.29c2.81-4.48,5.79-6.72,8.93-6.72,1.71,0,3.12.56,4.21,1.68,1.1,1.12,1.64,2.52,1.64,4.18s-.63,3.4-1.89,5.18c-1.26,1.79-3.38,4.18-6.33,7.18"/>
  </g>
</svg>